<?xml version="1.0" encoding="utf-8"?>
<!-- Generator: Adobe Illustrator 16.0.0, SVG Export Plug-In . SVG Version: 6.00 Build 0)  -->
<!DOCTYPE svg PUBLIC "-//W3C//DTD SVG 1.1//EN" "http://www.w3.org/Graphics/SVG/1.1/DTD/svg11.dtd">
<svg version="1.1" id="Layer_1" xmlns="http://www.w3.org/2000/svg" xmlns:xlink="http://www.w3.org/1999/xlink" x="0px" y="0px"
	 width="232px" height="208.243px" viewBox="0 0 232 208.243" enable-background="new 0 0 232 208.243" xml:space="preserve">
<polygon fill="#323232" points="232,0 0,0 0,191.616 104.469,191.616 116,208.243 127.531,191.616 232,191.616 "/>
<g>
	<path fill="#FFFFFF" d="M38.5,91.971h10c0-5.523,4.477-10,10-10s10,4.477,10,10v40.938c0,5.522-4.477,10-10,10s-10-4.478-10-10
		v-10.626h-10v10c0,11.046,8.954,20,20,20s20-8.954,20-20V91.345c0-10.355-8.395-18.75-18.75-18.75c-4.366,0-8.33,1.723-11.25,4.525
		V41.658h30v-9.375h-40V91.971z"/>
	<polygon fill="#FFFFFF" points="128.5,82.595 118.5,82.595 118.5,122.283 98.123,122.283 118.5,32.283 108.5,32.283 86,131.658 
		118.5,131.658 118.5,152.283 128.5,152.283 128.5,131.658 141,131.658 141,122.283 128.5,122.283 	"/>
	<path fill="#FFFFFF" d="M193.5,72.283v-20c0-11.046-8.954-20-20-20h-25v120h25c11.046,0,20-8.954,20-20v-30
		c0-6.238-3.15-11.739-7.949-15C190.35,84.021,193.5,78.521,193.5,72.283z M158.5,41.658h15c5.523,0,10,4.477,10,10v20.938
		c0,5.523-4.477,10-10,10h-15V41.658z M183.5,132.908c0,5.523-4.477,10-10,10h-15V91.971h15c5.523,0,10,4.477,10,10V132.908z"/>
</g>
</svg>
